<svg xmlns="http://www.w3.org/2000/svg" width="16" height="17" viewBox="0 0 16 17" fill="none">
    <path fill-rule="evenodd" clip-rule="evenodd"
          d="M2 4.5026C2 4.13441 2.29848 3.83594 2.66667 3.83594H8.66667C9.03486 3.83594 9.33333 4.13441 9.33333 4.5026C9.33333 4.87079 9.03486 5.16927 8.66667 5.16927H2.66667C2.29848 5.16927 2 4.87079 2 4.5026Z"
          fill="currentColor"/>
    <path fill-rule="evenodd" clip-rule="evenodd"
          d="M2 8.5026C2 8.13441 2.29848 7.83594 2.66667 7.83594H7.33333C7.70152 7.83594 8 8.13441 8 8.5026C8 8.87079 7.70152 9.16927 7.33333 9.16927H2.66667C2.29848 9.16927 2 8.87079 2 8.5026Z"
          fill="currentColor"/>
    <path fill-rule="evenodd" clip-rule="evenodd"
          d="M2 12.5026C2 12.1344 2.29848 11.8359 2.66667 11.8359H7.33333C7.70152 11.8359 8 12.1344 8 12.5026C8 12.8708 7.70152 13.1693 7.33333 13.1693H2.66667C2.29848 13.1693 2 12.8708 2 12.5026Z"
          fill="currentColor"/>
    <path fill-rule="evenodd" clip-rule="evenodd"
          d="M9.52897 10.0312C9.78932 9.77086 10.2114 9.77086 10.4718 10.0312L12.0004 11.5598L13.529 10.0312C13.7893 9.77086 14.2114 9.77086 14.4718 10.0312C14.7321 10.2916 14.7321 10.7137 14.4718 10.974L12.4718 12.974C12.2114 13.2344 11.7893 13.2344 11.529 12.974L9.52897 10.974C9.26862 10.7137 9.26862 10.2916 9.52897 10.0312Z"
          fill="currentColor"/>
    <path fill-rule="evenodd" clip-rule="evenodd"
          d="M12.0004 3.83594C12.3686 3.83594 12.667 4.13442 12.667 4.50261V12.5026C12.667 12.8708 12.3686 13.1693 12.0004 13.1693C11.6322 13.1693 11.3337 12.8708 11.3337 12.5026V4.50261C11.3337 4.13442 11.6322 3.83594 12.0004 3.83594Z"
          fill="currentColor"/>
</svg>