<svg width="155" height="52" viewBox="0 0 155 52" fill="none" xmlns="http://www.w3.org/2000/svg">
<path d="M9.15527e-05 25.6255C9.15527e-05 25.6255 9.95397 22.3103 18.5385 24.3986C35.3572 28.4896 35.0115 44.5917 35.0115 44.5917C35.0115 44.5917 28.2723 36.8158 20.6711 36.4865C20.6711 36.4865 24.1193 38.6786 27.2621 41.696C30.1087 44.4293 32.6274 47.8167 32.6274 47.8167C32.6274 47.8167 22.1572 50.117 15.4225 46.3733C10.8205 43.8159 8.7507 40.7714 5.19029 33.4871C2.86458 28.7286 0.0045806 25.63 0.0045806 25.63L9.15527e-05 25.6255Z" fill="#00AB51"/>
<path d="M13.7702 21.2639C26.8984 21.2639 37.5392 31.9536 37.5392 45.142C37.5392 45.2503 37.5392 45.354 37.5392 45.4577C40.4621 42.2193 42.2445 37.9163 42.2445 33.1985C42.24 23.1132 24.6086 2 24.6086 2C24.6086 2 15.7413 12.0041 10.2098 21.53C11.3727 21.3541 12.5625 21.2639 13.7702 21.2639Z" fill="#252525"/>
<path d="M55.8333 7.02271H60.5969V30.2783H55.8333V7.02271Z" fill="#252525"/>
<path d="M140.964 7.02271V19.282C140.964 25.1861 141.225 26.7106 145.557 26.7106C149.54 26.7106 150.025 25.4477 150.025 19.4759V7.02271H154.815V22.3987C154.815 29.5657 151.161 30.8016 145.723 30.8016C139.963 30.8016 136.178 29.4078 136.178 22.3355V7.02722H140.969L140.964 7.02271Z" fill="#252525"/>
<path d="M68.5034 22.9805C68.6965 25.4116 69.0512 26.7106 73.6218 26.7106C76.0373 26.7106 77.8063 26.3543 77.8063 23.9864C77.8063 22.5611 77.1642 21.7808 75.1349 21.2305L69.5361 19.706C66.7345 18.9618 64.2561 17.5996 64.2561 13.3508C64.2561 10.0086 65.7691 6.50854 72.9124 6.50854C80.0557 6.50854 81.8291 9.68838 81.9279 13.8379H77.1642C76.9398 11.894 76.841 10.595 72.7238 10.595C70.3083 10.595 69.0871 11.0505 69.0871 12.8998C69.0871 14.5867 70.0838 15.0738 71.4353 15.4301L76.5851 16.8238C79.8671 17.6989 82.6373 18.9979 82.6373 23.6345C82.6373 30.1882 77.07 30.8016 73.6263 30.8016C66.0924 30.8016 64.0361 27.8157 63.7442 22.985H68.5079L68.5034 22.9805Z" fill="#252525"/>
<path d="M92.0975 11.1135H85.1428V7.0271H103.78V11.1135H96.8567V30.2827H92.093V11.1135H92.0975Z" fill="#252525"/>
<path d="M106.923 7.02271H111.687V30.2783H106.923V7.02271Z" fill="#252525"/>
<path d="M119.535 22.9805C119.728 25.4116 120.082 26.7106 124.653 26.7106C127.069 26.7106 128.838 26.3543 128.838 23.9864C128.838 22.5611 128.196 21.7808 126.166 21.2305L120.567 19.706C117.766 18.9618 115.287 17.5996 115.287 13.3508C115.287 10.0086 116.8 6.50854 123.944 6.50854C131.087 6.50854 132.86 9.68838 132.959 13.8379H128.196C127.971 11.894 127.872 10.595 123.755 10.595C121.34 10.595 120.118 11.0505 120.118 12.8998C120.118 14.5867 121.115 15.0738 122.467 15.4301L127.616 16.8238C130.898 17.6989 133.669 18.9979 133.669 23.6345C133.669 30.1882 128.101 30.8016 124.658 30.8016C117.124 30.8016 115.067 27.8157 114.776 22.985H119.539L119.535 22.9805Z" fill="#252525"/>
<path d="M58.2131 4.82613C59.5397 4.82613 60.6151 3.74576 60.6151 2.41306C60.6151 1.08037 59.5397 0 58.2131 0C56.8865 0 55.811 1.08037 55.811 2.41306C55.811 3.74576 56.8865 4.82613 58.2131 4.82613Z" fill="#252525"/>
<path d="M109.213 4.82613C110.54 4.82613 111.615 3.74576 111.615 2.41306C111.615 1.08037 110.54 0 109.213 0C107.886 0 106.811 1.08037 106.811 2.41306C106.811 3.74576 107.886 4.82613 109.213 4.82613Z" fill="#252525"/>
<path d="M79.1094 46.8318C78.198 47.5625 77.6772 47.2603 77.2013 47.3099C76.7254 47.3595 76.6131 47.7068 76.7703 48.027C76.9274 48.3473 76.5907 48.6224 76.5907 48.6224C75.9666 49.2448 77.1339 50.7062 77.1699 50.165C77.2058 49.6237 77.4527 49.2674 78.1756 48.8344C78.8984 48.4059 79.6482 47.603 79.5629 46.9986C79.4776 46.3943 79.1184 46.8318 79.1184 46.8318H79.1094Z" fill="#00AB51"/>
<path d="M123.778 49.4704L122.256 49.2313C122.036 49.1952 121.919 49.1591 121.776 49.0058C121.664 48.8885 121.556 48.7712 121.448 48.654L121.268 48.4645C121.206 48.3969 121.107 48.3698 121.008 48.3879C120.914 48.4059 120.833 48.4645 120.802 48.5457C120.662 48.884 120.532 49.1456 120.379 49.3666C120.321 49.4523 120.231 49.5741 120.119 49.6192C120.056 49.6417 120.011 49.6057 119.904 49.4343L119.877 49.3892C119.746 49.1817 119.63 48.9607 119.517 48.7487C119.351 48.4285 119.176 48.0947 118.943 47.797C118.759 47.5579 118.566 47.373 118.359 47.2287C118.153 47.0844 117.847 46.8994 117.542 46.94C117.264 46.9806 117.03 47.2106 116.958 47.5264C116.886 47.8421 116.985 48.1488 117.214 48.3067C117.237 48.3202 117.259 48.3337 117.282 48.3473C117.452 48.5412 117.65 48.681 117.874 48.7622C117.973 48.7983 118.076 48.8209 118.175 48.8389C118.337 48.875 118.494 48.9066 118.611 49.0058C118.786 49.1546 118.893 49.3621 119.01 49.5831C119.113 49.7771 119.221 49.98 119.378 50.1469C119.576 50.3544 119.818 50.4626 120.101 50.5709C120.209 50.6115 120.317 50.6566 120.411 50.7152C120.492 50.7648 120.559 50.8415 120.626 50.9182C120.653 50.9453 120.676 50.9723 120.703 51.0039C120.842 51.1482 121.031 51.3061 121.264 51.3061C121.3 51.3061 121.336 51.3061 121.376 51.2926C121.677 51.2294 121.767 50.9859 121.839 50.7919C121.852 50.7558 121.866 50.7152 121.884 50.6791C122.144 50.0702 122.934 50.0342 123.72 50.0477H123.724C123.873 50.0477 123.989 49.9349 124.003 49.7816C124.016 49.6282 123.922 49.5019 123.774 49.4794L123.778 49.4704Z" fill="#00AB51"/>
<path d="M101.837 43.9902C100.517 44.1165 99.4166 44.775 98.3525 45.4155L98.2403 45.4832C97.733 45.7854 97.1268 46.1372 96.4623 46.4258C96.166 46.5521 95.8652 46.6739 95.5644 46.7957C95.2501 46.922 94.9358 47.0483 94.626 47.1836C94.1456 47.3911 93.7325 47.6076 93.3599 47.8376L93.3285 47.8557C93.0501 48 92.1566 48.5006 92.1836 48.8795C92.1836 48.9111 92.1925 48.9472 92.2105 48.9833C92.233 49.0284 92.2644 49.0644 92.3048 49.0915C92.3317 49.1095 92.3587 49.1186 92.3721 49.1231C92.4036 49.1366 92.4485 49.1546 92.5383 49.1546C92.7403 49.1546 93.1578 49.0419 94.0423 48.4646C94.3342 48.4059 94.6081 48.2977 94.8774 48.1894L95.0256 48.1308C95.5464 47.9278 96.0627 47.7023 96.5566 47.4632C96.7901 47.3505 97.0191 47.2332 97.2481 47.1159L97.3289 47.0708C97.4681 46.9897 97.7015 46.8588 97.8183 46.9265C97.8946 46.9671 97.9395 47.0438 97.9934 47.134C98.0832 47.2873 98.1999 47.4813 98.5097 47.4813C98.6713 47.4723 98.797 47.3956 98.824 47.2603C98.8868 46.9716 98.9497 46.6739 99.0754 46.4078C99.2101 46.1327 99.4166 45.9162 99.7309 45.7358C100.225 45.4471 100.741 45.1674 101.244 44.8968C101.468 44.775 101.697 44.6533 101.922 44.5315C102.093 44.5044 102.173 44.3691 102.16 44.2428C102.146 44.112 102.043 43.9857 101.846 43.9993L101.837 43.9902Z" fill="#00AB51"/>
<path d="M154.574 43.7423C152.486 42.5425 151.288 42.6282 150.857 42.7274C150.839 42.7274 150.825 42.7365 150.812 42.7365C150.722 42.759 150.677 42.7816 150.677 42.7816C150.286 42.971 149.941 43.2416 149.555 43.4356C149.155 43.634 148.728 43.7784 148.293 43.8686C147.848 43.9633 147.386 43.9949 146.928 43.9723C146.457 43.9498 145.99 43.846 145.514 43.8325C144.634 43.8054 143.92 44.2429 143.116 44.5271C142.717 44.6714 142.299 44.7526 141.882 44.6444C141.464 44.5361 141.1 44.2925 140.723 44.0986C139.946 43.7017 139.084 43.5348 138.218 43.4671C137.288 43.395 136.35 43.4175 135.416 43.4581C134.419 43.5032 133.423 43.5934 132.431 43.7287C131.362 43.8731 130.298 44.0715 129.247 44.3196C129.081 44.3602 128.915 44.4008 128.749 44.4459C128.726 44.4414 128.699 44.4414 128.668 44.4459C128.565 44.473 128.462 44.509 128.358 44.5451C128.12 44.6083 127.878 44.6759 127.644 44.7436C127.218 44.8699 126.778 45.0052 126.329 45.0052C126.221 45.0052 126.118 44.9646 126.028 44.906C124.169 43.6701 122.176 42.6282 120.093 41.8118C119.518 41.5863 118.934 41.3788 118.346 41.1849C118.081 41.0992 117.776 41.027 117.578 40.8195C117.381 40.6166 117.304 40.3234 117.147 40.0889C116.716 39.4574 115.98 39.0605 115.217 39.0018C115.203 39.0018 115.194 38.9973 115.181 38.9928C115.024 38.9748 114.853 38.9838 114.682 39.0154C114.664 39.0154 114.651 39.0154 114.633 39.0154C114.615 39.0154 114.597 39.0289 114.579 39.0289C114.494 39.0469 114.404 39.074 114.314 39.1011C114.197 39.1372 114.085 39.1823 113.973 39.2319C113.169 39.5837 112.307 40.2332 111.575 40.7609C110.601 41.4645 109.133 41.2074 108.769 41.1262C108.742 41.1172 108.711 41.1172 108.684 41.1082C108.684 41.0315 108.675 40.9594 108.662 40.8872C108.653 40.8511 108.644 40.815 108.635 40.7789C108.617 40.7203 108.599 40.6662 108.576 40.6166C108.576 40.6121 108.572 40.603 108.567 40.5985C108.235 39.8453 107.288 39.6062 107.261 39.5972C107.184 39.5656 107.108 39.5296 107.032 39.498C106.354 39.1913 105.788 38.7177 105.384 38.1133C105.155 37.775 104.688 37.7028 104.356 37.9419C102.811 39.056 101.213 40.1024 99.5697 41.0676C98.6583 41.6043 97.7289 42.1185 96.786 42.6102C96.3056 42.8627 95.8207 43.1063 95.3313 43.3408C94.8554 43.5709 94.3705 43.819 93.8272 43.8009C93.5309 43.7919 93.2436 43.7287 92.9472 43.7197C92.6823 43.7152 92.4174 43.7648 92.1615 43.8415C91.8697 43.9272 91.5778 44.0445 91.2815 44.1076C91.2007 44.1076 91.1244 44.1031 91.0391 44.1076C90.3432 44.1076 89.8448 44.0039 89.4901 43.8595C89.1713 43.5393 88.8885 43.2552 88.5742 42.9349C88.4799 42.7229 88.3811 42.5154 88.1791 42.3756C87.6987 42.0328 87.0746 42.2403 86.5403 42.087C85.9925 41.9291 85.8264 41.2796 85.4717 40.9052C85.0632 40.4722 84.4929 40.4903 83.9946 40.7564C83.4154 41.0676 82.9574 41.5818 82.2885 41.7171C81.5836 41.8614 80.8517 41.681 80.1378 41.7487C79.8011 41.7802 79.4778 41.8659 79.177 42.0238C78.8717 42.1862 78.6023 42.3982 78.315 42.5876C77.9513 42.8267 77.5832 42.971 77.1432 42.9981C76.6897 43.0251 76.2362 42.98 75.7917 43.0522C75.0868 43.1695 74.4448 43.5573 74.0003 44.1166C74.0003 44.0851 73.9823 44.0535 73.9509 44.0219C73.4481 43.5483 72.8509 43.192 72.1954 42.971C71.8721 42.8627 71.5354 42.8086 71.2121 42.7049C70.8709 42.5966 70.6329 42.4027 70.3995 42.1456C70.2019 41.9201 69.9999 41.6991 69.7125 41.5863C69.4566 41.4871 69.1872 41.4826 68.9223 41.5412C68.3162 41.672 67.7999 42.0599 67.1983 42.2132C66.4395 42.4072 65.7121 42.0013 65.0476 41.6855C64.2934 41.3292 63.5436 40.9684 62.7893 40.6121C62.4885 40.4677 62.1697 40.3279 61.8285 40.3956C61.5501 40.4542 61.3211 40.6346 61.1191 40.8286C60.8991 41.0405 60.7105 41.2796 60.4636 41.4645C60.2391 41.6359 59.9876 41.7757 59.7272 41.893C58.6452 42.3756 57.0289 42.6237 56.068 43.404C55.9603 43.4897 55.8974 43.616 55.875 43.7513C55.8301 43.9994 55.7807 44.4143 55.8346 44.7706C55.9199 45.339 55.8885 45.9479 56.0591 45.6817C56.6068 45.1901 57.5183 44.5632 58.1962 44.3151C58.955 44.0355 59.8305 44.2384 60.5444 43.828C60.8272 43.6656 61.0697 43.4311 61.3076 43.21C61.5366 43.0026 61.7925 42.75 62.1068 42.6778C62.475 42.5921 62.7489 42.8627 63.0542 43.0116C63.355 43.1604 63.6468 43.1424 63.9027 42.9124C64.0509 42.777 64.1632 42.6102 64.3921 42.6327C64.5987 42.6553 64.7962 42.8086 64.9578 42.9304C65.2901 43.174 65.6178 43.4265 65.9052 43.7197C66.1791 43.9994 66.3766 44.3196 66.5383 44.6759C66.664 44.9511 66.7762 45.2352 66.9378 45.4968C67.1623 45.8622 67.8807 46.4846 68.1591 45.8441C68.3881 45.3254 67.9974 44.7526 67.8897 44.252C67.8178 43.9227 67.8942 43.5844 68.2534 43.4762C68.6844 43.3408 69.0795 43.607 69.3219 43.9452C69.8921 44.7391 70.0672 45.8261 70.0044 46.7733C69.9909 46.9717 70.2693 46.9582 70.3276 46.8048C70.5342 46.2456 70.6823 45.6276 71.055 45.1495C71.3558 44.7661 71.8676 44.491 72.366 44.6038C72.6219 44.6624 72.9272 44.8699 72.8599 45.1631C72.7791 45.5058 72.586 45.8531 72.4558 46.1779C72.1774 46.8635 71.8946 47.5491 71.6162 48.2346C71.5489 48.397 71.7464 48.5684 71.8811 48.4196C73.3538 46.8048 75.1587 45.4878 77.1611 44.5812C77.6505 44.3602 78.1534 44.1617 78.6652 43.9858C79.2938 43.7739 79.9493 43.5528 80.6093 43.5077C80.7844 43.4987 80.9595 43.5258 81.1346 43.5528C81.4713 43.6025 81.7632 43.5889 82.0819 43.4987C82.3154 43.4311 82.5489 43.3318 82.7958 43.3454C83.0921 43.3589 83.3166 43.5168 83.2852 43.8325C83.2538 44.1211 83.164 44.4188 83.0966 44.703C83.0203 45.0142 82.944 45.3299 82.8452 45.6366C82.6566 46.232 82.4097 46.8093 82.0505 47.3235C81.9652 47.4453 82.1178 47.5942 82.2436 47.5536C83.0248 47.3055 83.137 46.426 83.3705 45.7629C83.4917 45.4111 83.7881 44.9691 84.1832 44.8834C84.2685 44.8654 84.3852 44.8654 84.466 44.915C84.5603 44.9736 84.6187 45.136 84.677 45.2307L84.8746 45.5555C85.0946 45.9163 85.566 46.029 85.9072 45.781C86.1497 45.6051 86.3293 45.357 86.4415 45.0548C86.5448 44.7797 86.6481 44.5271 86.9444 44.4143C87.1734 44.3286 87.4293 44.3376 87.6672 44.3782C88.1297 44.4549 88.646 44.712 89.1534 44.8563C89.1534 44.8563 89.7595 45.0999 90.3521 44.8789C90.3566 44.8789 90.3611 44.8789 90.3656 44.8744C90.837 44.7075 91.2636 45.2442 91.0391 45.6908C90.9627 45.8396 90.8729 45.9794 90.7652 46.1057C90.5362 46.3718 90.2534 46.5748 89.966 46.7733C89.4317 47.1431 88.8705 47.5175 88.6505 48.1625C88.6056 48.2978 88.7358 48.37 88.8436 48.3474C88.9154 48.397 89.0232 48.397 89.0815 48.2978C89.3464 47.8467 89.8762 47.6844 90.3476 47.522C90.8729 47.3416 91.3399 47.1341 91.744 46.7372C91.9685 46.5162 92.1705 46.2726 92.4264 46.0787C92.6374 45.9208 92.8709 45.7855 93.1089 45.6817C93.5938 45.4698 94.1101 45.348 94.6264 45.2397C95.6411 45.0323 96.7232 44.906 97.6211 44.3557C98.106 44.058 98.4068 43.634 98.775 43.2146C98.977 42.9845 99.206 42.7996 99.5113 42.7229C99.8121 42.6462 100.131 42.6643 100.436 42.6553C100.75 42.6462 101.074 42.6237 101.361 42.4929C101.613 42.3801 101.797 42.1907 101.954 41.9697C102.008 41.893 102.066 41.7983 102.12 41.6991C102.376 41.2616 103.045 41.3382 103.171 41.8299C103.197 41.9426 103.224 42.0554 103.247 42.1681C103.247 42.4027 103.278 42.6417 103.332 42.8763C103.377 43.0567 103.66 43.0026 103.651 42.8222C103.642 42.5966 103.615 42.3756 103.575 42.1546C103.561 41.3698 103.853 40.585 104.383 40.0032C104.567 39.8002 104.872 39.7641 105.11 39.9084C106.21 40.576 107.315 41.3788 107.633 42.6823C107.719 43.0251 107.732 43.386 107.651 43.7287C107.566 44.1076 107.395 44.4414 107.386 44.8383C107.377 45.1991 107.395 45.5419 107.279 45.8892C107.18 46.1869 107.009 46.462 106.812 46.7056C106.717 46.8184 106.619 46.9266 106.511 47.0304C106.376 47.1567 106.174 47.3235 105.909 47.4724C105.846 47.4994 105.788 47.531 105.73 47.5626C105.703 47.5761 105.68 47.5896 105.649 47.6032C105.622 47.6122 105.604 47.6348 105.577 47.6483C105.577 47.6483 105.568 47.6528 105.564 47.6573C104.971 47.9956 104.67 49.0285 104.67 49.0285C104.616 49.2044 104.607 49.3532 104.63 49.4389C104.693 49.7276 105.438 49.2675 105.649 49.1097C105.86 48.9518 106.098 48.4556 106.098 48.4556C106.219 47.9595 106.277 48.1129 106.475 47.9505C106.749 47.8332 106.825 47.5942 107.09 47.4543C107.404 47.2874 107.741 46.9356 107.988 46.674C108.213 46.4305 108.347 46.1328 108.464 45.8261C108.599 45.4607 108.724 45.0909 108.855 44.721C108.904 44.5857 108.953 44.4459 108.998 44.3106C109.021 44.27 109.039 44.2249 109.061 44.1617C109.182 43.8099 109.218 43.4897 109.214 43.21C109.223 43.1875 109.218 43.1514 109.214 43.1153C109.214 43.0477 109.205 42.989 109.196 42.9304C109.196 42.8357 109.178 42.741 109.146 42.6462C109.146 42.6327 109.142 42.6192 109.137 42.6057C109.137 42.6011 109.137 42.5966 109.137 42.5966C109.137 42.5966 109.137 42.5876 109.133 42.5876C109.097 42.4523 109.061 42.3531 109.034 42.2899C109.007 42.1591 109.016 42.0283 109.124 41.9652C109.137 41.9562 109.146 41.9471 109.164 41.9426C109.178 41.9426 109.196 41.9426 109.209 41.9381C109.241 41.9336 109.272 41.9246 109.317 41.9291C109.322 41.9291 109.326 41.9291 109.335 41.9291C109.389 41.9336 109.447 41.9426 109.506 41.9562C109.591 41.9787 109.672 42.0058 109.744 42.0328C109.901 42.096 110.058 42.1546 110.215 42.2178C110.233 42.2268 110.251 42.2313 110.264 42.2403C110.489 42.3486 110.722 42.4748 110.942 42.6057C111.095 42.7184 111.252 42.8267 111.418 42.9259C111.674 43.0792 111.921 43.2281 112.146 43.404C112.164 43.4175 112.173 43.4265 112.182 43.4311C112.411 43.6115 112.617 43.8235 112.779 44.0941C112.936 44.3557 113.039 44.6534 113.084 44.9556C113.124 45.2442 113.084 45.5464 113.183 45.8306C113.286 46.1463 113.524 46.3809 113.569 46.7191C113.614 47.0439 113.528 47.3596 113.349 47.6257C113.349 47.6302 113.349 47.6393 113.34 47.6438C113.246 47.7205 113.246 47.8964 113.398 47.9234C114.099 48.0452 114.543 47.3551 114.655 46.7552C114.804 45.9524 114.602 45.0999 114.417 44.3151C114.229 43.5032 113.995 42.6553 114.112 41.8163C114.135 41.6359 114.162 41.3924 114.26 41.2345C114.391 41.0315 114.637 41.1668 114.777 41.2886C115.037 41.5096 115.158 41.8614 115.477 42.0283C115.85 42.2223 116.258 41.9832 116.64 41.9562C117.08 41.9291 117.52 42.0193 117.928 42.1727C118.759 42.4794 119.464 43.0206 120.196 43.5032C120.878 43.9543 121.61 44.3602 122.427 44.4775C122.625 44.5045 122.827 44.5181 123.02 44.5677C123.244 44.6263 123.411 44.7526 123.568 44.915C123.851 45.2036 124.129 45.4337 124.51 45.587C124.928 45.7539 125.382 45.8441 125.777 46.0606C126.1 46.2365 126.437 46.5342 126.473 46.9131C126.473 46.9176 126.473 46.9221 126.473 46.9311C126.473 46.9311 126.473 46.9356 126.473 46.9401C126.464 47.1115 126.387 47.3461 126.181 47.6528C126.091 47.7656 125.988 47.8738 125.898 47.9775C125.799 48.0903 125.709 48.2121 125.624 48.3339C125.328 48.6361 125.135 48.7669 125.171 48.9112C125.22 49.1277 125.458 49.3622 125.911 49.0194C125.925 49.0194 125.938 49.0194 125.952 49.0149C125.961 49.0014 125.965 48.9879 125.979 48.9743C126.248 48.7443 126.63 48.4376 126.966 48.0903C126.975 48.0813 126.98 48.0768 126.989 48.0723C126.998 48.0632 127.002 48.0542 127.011 48.0452C127.124 47.9324 127.227 47.8107 127.326 47.6934C127.523 47.4453 127.878 47.4137 128.125 47.6077C128.255 47.7069 128.385 47.8061 128.52 47.9009C128.717 48.0587 128.897 48.194 128.969 48.2437C128.987 48.2527 129.005 48.2707 129.027 48.2843C129.054 48.3023 129.081 48.3203 129.108 48.3384C129.391 48.5233 129.88 48.7849 129.939 48.1309C129.939 48.1309 128.022 46.2591 128.699 45.7088C129.139 45.3525 129.71 45.2984 130.082 45.2082C130.145 45.1946 130.204 45.1856 130.262 45.1901C130.626 45.2172 131.025 45.2533 131.38 45.2533C132.475 45.2623 133.45 44.7075 134.451 44.3557C134.954 44.1798 135.533 43.9994 136.063 44.1527C136.521 44.2835 136.826 44.6759 137.212 44.924C137.666 45.2127 138.142 45.1585 138.649 45.0954C139.251 45.0232 139.857 45.0638 140.454 45.1676C141.379 45.3254 142.295 45.5509 143.206 45.7855C143.498 45.8982 144.104 45.9524 144.194 46.3087C144.203 46.3989 144.212 46.444 144.212 46.444C144.176 46.7417 144.167 46.7642 143.448 47.5581C143.318 47.7024 143.251 47.8197 143.121 47.9189C143.013 48.0001 142.878 48.1038 142.82 48.1444C142.802 48.158 142.784 48.1715 142.762 48.1805C142.64 48.2527 142.29 48.4872 142.241 48.5053C142.241 48.5053 141.495 49.1908 144.36 48.5594L144.49 48.4692C145.182 47.9054 145.604 47.3371 146.241 46.7101C146.555 46.3989 146.861 46.0471 147.301 45.9073C147.745 45.7674 148.226 45.8171 148.684 45.7765C149.151 45.7359 149.828 45.1766 150.251 44.9781C150.628 44.7977 151.467 44.6489 151.885 44.6218C152.747 44.7436 151.225 46.6695 151.351 47.5987C151.377 47.7881 151.521 47.8332 151.656 47.7114C152.751 46.7327 153.389 45.79 154.318 45.0142C155.239 44.2204 154.588 43.7152 154.588 43.7152L154.574 43.7423Z" fill="#00AB51"/>
</svg>
