<svg width="280" height="59" viewBox="0 0 280 59" fill="none" xmlns="http://www.w3.org/2000/svg">
<path d="M55.0225 29.5C55.0225 43.5957 43.5957 55.0225 29.5 55.0225C15.4043 55.0225 3.97753 43.5957 3.97753 29.5C3.97753 15.4043 15.4043 3.97753 29.5 3.97753C43.5957 3.97753 55.0225 15.4043 55.0225 29.5Z" stroke="#009AFF" stroke-width="7.95506"/>
<path d="M19.8867 27.969L31.737 39.7705L51.7069 19.8828" stroke="#009AFF" stroke-width="7.95506"/>
<path d="M17.4303 30.8311C20.5751 30.8311 23.264 28.3836 23.264 25.1963C23.264 22.009 20.5751 19.5614 17.4303 19.5614C14.2856 19.5614 11.5966 22.009 11.5966 25.1963C11.5966 28.3836 14.2856 30.8311 17.4303 30.8311Z" fill="#009AFF" stroke="white" stroke-width="3.31461"/>
<path d="M83.637 43L76.2293 21.5158H76.071C76.1061 21.9968 76.1472 22.6537 76.1941 23.4865C76.241 24.3194 76.2821 25.2109 76.3173 26.1611C76.3525 27.1112 76.3701 28.0203 76.3701 28.8884V43H72.5342V17.2753H78.4639L85.5901 37.8093H85.6957L93.0682 17.2753H98.9803V43H94.951V28.6772C94.951 27.8913 94.9627 27.0408 94.9862 26.1259C95.0213 25.2109 95.0565 24.3429 95.0917 23.5217C95.1386 22.7006 95.1738 22.0437 95.1973 21.551H95.0565L87.3673 43H83.637ZM109.467 23.5217V43H105.332V23.5217H109.467ZM107.426 16.0612C108.06 16.0612 108.605 16.2313 109.063 16.5715C109.532 16.9117 109.766 17.4982 109.766 18.3311C109.766 19.1522 109.532 19.7387 109.063 20.0906C108.605 20.4308 108.06 20.6009 107.426 20.6009C106.769 20.6009 106.212 20.4308 105.755 20.0906C105.309 19.7387 105.086 19.1522 105.086 18.3311C105.086 17.4982 105.309 16.9117 105.755 16.5715C106.212 16.2313 106.769 16.0612 107.426 16.0612ZM125.55 23.1522C127.743 23.1522 129.45 23.7212 130.67 24.859C131.902 25.9851 132.517 27.7975 132.517 30.296V43H128.382V31.0702C128.382 29.557 128.072 28.425 127.45 27.6743C126.828 26.9118 125.866 26.5306 124.564 26.5306C122.676 26.5306 121.362 27.1112 120.623 28.2725C119.896 29.4338 119.532 31.1171 119.532 33.3225V43H115.397V23.5217H118.617L119.198 26.1611H119.426C119.849 25.4807 120.371 24.9235 120.992 24.4895C121.626 24.0437 122.33 23.7094 123.104 23.4865C123.89 23.2637 124.705 23.1522 125.55 23.1522ZM145.943 23.1522C148.406 23.1522 150.265 23.6977 151.521 24.7886C152.787 25.8795 153.421 27.5804 153.421 29.8913V43H150.482L149.691 40.2375H149.55C148.999 40.9413 148.43 41.522 147.843 41.9795C147.257 42.4369 146.576 42.7771 145.802 43C145.04 43.2346 144.107 43.3519 143.004 43.3519C141.843 43.3519 140.805 43.1408 139.89 42.7185C138.975 42.2844 138.254 41.6275 137.726 40.7478C137.198 39.868 136.934 38.7536 136.934 37.4046C136.934 35.3987 137.679 33.8914 139.169 32.8826C140.67 31.8738 142.934 31.3166 145.96 31.211L149.339 31.0878V30.0673C149.339 28.7183 149.022 27.7564 148.389 27.1816C147.767 26.6068 146.887 26.3194 145.749 26.3194C144.776 26.3194 143.831 26.4602 142.916 26.7417C142.001 27.0233 141.11 27.3693 140.242 27.7799L138.905 24.859C139.855 24.3546 140.934 23.944 142.142 23.6273C143.362 23.3106 144.629 23.1522 145.943 23.1522ZM149.321 33.692L146.805 33.7799C144.74 33.8503 143.292 34.2022 142.459 34.8357C141.626 35.4691 141.21 36.3372 141.21 37.4398C141.21 38.4017 141.497 39.1055 142.072 39.5513C142.647 39.9853 143.403 40.2023 144.342 40.2023C145.773 40.2023 146.958 39.7976 147.896 38.9882C148.846 38.1671 149.321 36.9647 149.321 35.3811V33.692Z" fill="#009AFF"/>
<path d="M168.553 43H164.313V20.8648H156.782V17.2753H176.066V20.8648H168.553V43ZM187.345 23.1522C189.081 23.1522 190.571 23.51 191.814 24.2256C193.058 24.9411 194.014 25.9558 194.682 27.2696C195.351 28.5834 195.685 30.1553 195.685 31.9852V34.2022H182.682C182.729 36.0908 183.234 37.5454 184.196 38.5659C185.169 39.5865 186.53 40.0967 188.278 40.0967C189.521 40.0967 190.635 39.9794 191.621 39.7448C192.618 39.4985 193.644 39.1407 194.7 38.6715V42.0322C193.726 42.4897 192.735 42.824 191.726 43.0352C190.718 43.2463 189.509 43.3519 188.102 43.3519C186.19 43.3519 184.506 42.9824 183.052 42.2434C181.609 41.4926 180.477 40.3783 179.656 38.9002C178.846 37.4222 178.442 35.5864 178.442 33.3928C178.442 31.211 178.811 29.3576 179.55 27.8326C180.289 26.3077 181.327 25.1464 182.665 24.3487C184.002 23.5511 185.562 23.1522 187.345 23.1522ZM187.345 26.2666C186.043 26.2666 184.987 26.6889 184.178 27.5335C183.38 28.3781 182.911 29.6157 182.77 31.2462H191.638C191.627 30.2726 191.462 29.4104 191.146 28.6596C190.841 27.9089 190.372 27.3224 189.738 26.9001C189.116 26.4778 188.319 26.2666 187.345 26.2666ZM210.501 23.1522C212.694 23.1522 214.401 23.7212 215.621 24.859C216.853 25.9851 217.469 27.7975 217.469 30.296V43H213.334V31.0702C213.334 29.557 213.023 28.425 212.401 27.6743C211.779 26.9118 210.818 26.5306 209.516 26.5306C207.627 26.5306 206.313 27.1112 205.574 28.2725C204.847 29.4338 204.483 31.1171 204.483 33.3225V43H200.348V23.5217H203.568L204.149 26.1611H204.378C204.8 25.4807 205.322 24.9235 205.944 24.4895C206.577 24.0437 207.281 23.7094 208.055 23.4865C208.841 23.2637 209.656 23.1522 210.501 23.1522ZM229.803 43.3519C227.481 43.3519 225.615 42.5073 224.208 40.8182C222.812 39.1173 222.114 36.6128 222.114 33.3049C222.114 29.9617 222.824 27.4338 224.243 25.7212C225.674 24.0086 227.557 23.1522 229.891 23.1522C230.876 23.1522 231.739 23.2871 232.478 23.5569C233.217 23.815 233.85 24.1669 234.378 24.6127C234.918 25.0584 235.375 25.557 235.75 26.1083H235.944C235.885 25.7446 235.815 25.2226 235.733 24.5423C235.662 23.8502 235.627 23.2109 235.627 22.6244V15.6213H239.78V43H236.542L235.803 40.3431H235.627C235.275 40.9061 234.83 41.4164 234.29 41.8739C233.762 42.3196 233.129 42.6774 232.39 42.9472C231.662 43.217 230.8 43.3519 229.803 43.3519ZM230.964 39.9912C232.736 39.9912 233.985 39.4809 234.712 38.4604C235.44 37.4398 235.815 35.909 235.838 33.8679V33.3225C235.838 31.1406 235.487 29.469 234.783 28.3077C234.079 27.1347 232.794 26.5482 230.929 26.5482C229.44 26.5482 228.302 27.1523 227.516 28.3605C226.742 29.557 226.354 31.2286 226.354 33.3752C226.354 35.5219 226.742 37.1641 227.516 38.302C228.302 39.4281 229.451 39.9912 230.964 39.9912ZM253.469 23.1522C255.205 23.1522 256.695 23.51 257.938 24.2256C259.182 24.9411 260.138 25.9558 260.806 27.2696C261.475 28.5834 261.809 30.1553 261.809 31.9852V34.2022H248.806C248.853 36.0908 249.358 37.5454 250.32 38.5659C251.293 39.5865 252.654 40.0967 254.402 40.0967C255.645 40.0967 256.76 39.9794 257.745 39.7448C258.742 39.4985 259.768 39.1407 260.824 38.6715V42.0322C259.85 42.4897 258.859 42.824 257.85 43.0352C256.842 43.2463 255.633 43.3519 254.226 43.3519C252.314 43.3519 250.63 42.9824 249.176 42.2434C247.733 41.4926 246.601 40.3783 245.78 38.9002C244.971 37.4222 244.566 35.5864 244.566 33.3928C244.566 31.211 244.935 29.3576 245.674 27.8326C246.413 26.3077 247.451 25.1464 248.789 24.3487C250.126 23.5511 251.686 23.1522 253.469 23.1522ZM253.469 26.2666C252.167 26.2666 251.111 26.6889 250.302 27.5335C249.504 28.3781 249.035 29.6157 248.894 31.2462H257.762C257.751 30.2726 257.587 29.4104 257.27 28.6596C256.965 27.9089 256.496 27.3224 255.862 26.9001C255.24 26.4778 254.443 26.2666 253.469 26.2666ZM276.343 23.1522C276.672 23.1522 277.03 23.1698 277.417 23.205C277.804 23.2402 278.138 23.2871 278.42 23.3458L278.033 27.2168C277.786 27.1464 277.481 27.0936 277.118 27.0584C276.766 27.0233 276.449 27.0057 276.167 27.0057C275.428 27.0057 274.725 27.1288 274.056 27.3752C273.387 27.6098 272.795 27.9734 272.279 28.4661C271.763 28.947 271.358 29.5511 271.065 30.2784C270.771 31.0057 270.625 31.8503 270.625 32.8122V43H266.472V23.5217H269.71L270.273 26.9529H270.466C270.854 26.2608 271.334 25.6273 271.909 25.0526C272.484 24.4778 273.141 24.0203 273.88 23.6801C274.631 23.3282 275.452 23.1522 276.343 23.1522Z" fill="black"/>
</svg>
