<svg xmlns="http://www.w3.org/2000/svg" width="24" height="24" viewBox="0 0 24 24" fill="none">
    <path fill-rule="evenodd" clip-rule="evenodd"
          d="M10.9193 2.87064C11.0293 2.68179 11.1869 2.52511 11.3764 2.41621C11.5659 2.30731 11.7807 2.25 11.9993 2.25C12.2178 2.25 12.4326 2.30731 12.6221 2.41621C12.8116 2.52511 12.9692 2.68179 13.0793 2.87064L15.8743 7.66864L21.3023 8.84464C21.5158 8.89103 21.7134 8.99258 21.8754 9.13917C22.0374 9.28575 22.1582 9.47225 22.2257 9.68006C22.2932 9.88787 22.305 10.1097 22.26 10.3236C22.215 10.5374 22.1148 10.7356 21.9693 10.8986L18.2693 15.0396L18.8293 20.5646C18.8513 20.7822 18.816 21.0017 18.7267 21.2013C18.6374 21.401 18.4973 21.5737 18.3204 21.7022C18.1435 21.8307 17.9359 21.9106 17.7185 21.9338C17.5011 21.9571 17.2813 21.9229 17.0813 21.8346L11.9993 19.5946L6.91725 21.8346C6.71717 21.9229 6.49744 21.9571 6.28001 21.9338C6.06257 21.9106 5.85504 21.8307 5.67812 21.7022C5.50121 21.5737 5.36112 21.401 5.27182 21.2013C5.18253 21.0017 5.14716 20.7822 5.16925 20.5646L5.72925 15.0396L2.02925 10.8996C1.88348 10.7367 1.78301 10.5383 1.73787 10.3244C1.69272 10.1104 1.70449 9.88837 1.772 9.68039C1.8395 9.47242 1.96038 9.28579 2.12256 9.13913C2.28474 8.99248 2.48256 8.89093 2.69625 8.84464L8.12425 7.66864L10.9193 2.87064ZM11.9993 4.98964L9.68625 8.96163C9.59879 9.11156 9.48107 9.24162 9.34058 9.34355C9.20009 9.44547 9.03991 9.51702 8.87025 9.55363L4.37825 10.5266L7.44025 13.9536C7.67425 14.2156 7.78725 14.5636 7.75225 14.9126L7.28925 19.4856L11.4953 17.6316C11.6541 17.5617 11.8257 17.5255 11.9993 17.5255C12.1728 17.5255 12.3444 17.5617 12.5033 17.6316L16.7093 19.4856L16.2463 14.9126C16.2287 14.74 16.2472 14.5655 16.3008 14.4004C16.3543 14.2353 16.4417 14.0831 16.5573 13.9536L19.6203 10.5266L15.1283 9.55363C14.9586 9.51702 14.7984 9.44547 14.6579 9.34355C14.5174 9.24162 14.3997 9.11156 14.3123 8.96163L11.9993 4.98964Z"
          fill="white"/>
</svg>