<svg width="20" height="20" viewBox="0 0 20 20" fill="none" xmlns="http://www.w3.org/2000/svg">
<path fill-rule="evenodd" clip-rule="evenodd" d="M6.46018 1.45411C7.58244 0.989258 8.78527 0.75 10 0.75C11.2147 0.75 12.4176 0.989258 13.5398 1.45411C14.6621 1.91897 15.6818 2.60032 16.5407 3.45926C17.3997 4.3182 18.081 5.33792 18.5459 6.46018C19.0107 7.58244 19.25 8.78527 19.25 10C19.25 11.2147 19.0107 12.4176 18.5459 13.5398C18.081 14.6621 17.3997 15.6818 16.5407 16.5407C16.3793 16.7022 16.2122 16.8574 16.0398 17.006C16.0113 17.0333 15.9811 17.0591 15.9492 17.083C15.2268 17.6898 14.4144 18.1836 13.5398 18.5459C12.4176 19.0107 11.2147 19.25 10 19.25C8.78527 19.25 7.58244 19.0107 6.46018 18.5459C5.33792 18.081 4.3182 17.3997 3.45926 16.5407C2.60032 15.6818 1.91897 14.6621 1.45411 13.5398C0.989258 12.4176 0.75 11.2147 0.75 10C0.75 8.78527 0.989258 7.58244 1.45411 6.46018C1.91897 5.33792 2.60032 4.3182 3.45926 3.45926C4.3182 2.60032 5.33792 1.91897 6.46018 1.45411ZM15.6108 14.5915C16.0594 14.0433 16.4261 13.4313 16.6981 12.7745C17.0625 11.8948 17.25 10.9521 17.25 10C17.25 9.04792 17.0625 8.10516 16.6981 7.22555C16.3338 6.34594 15.7997 5.5467 15.1265 4.87348C14.4533 4.20025 13.6541 3.66622 12.7745 3.30187C11.8948 2.93753 10.9521 2.75 10 2.75C9.04792 2.75 8.10516 2.93753 7.22555 3.30187C6.34593 3.66622 5.5467 4.20025 4.87348 4.87348C4.20025 5.5467 3.66622 6.34593 3.30187 7.22555C2.93753 8.10516 2.75 9.04792 2.75 10C2.75 10.9521 2.93753 11.8948 3.30187 12.7745C3.57395 13.4313 3.94065 14.0433 4.38927 14.5915C4.66543 14.2112 4.99919 13.8723 5.38122 13.5883C6.18647 12.9896 7.16323 12.6664 8.16664 12.6667M5.87744 15.9638C6.05595 15.6656 6.29216 15.4032 6.57451 15.1933C7.03469 14.8512 7.59291 14.6665 8.16634 14.6667H11.8333C12.4075 14.6665 12.9667 14.8516 13.4272 15.1945C13.7089 15.4042 13.9445 15.6661 14.1227 15.9637C13.7015 16.2549 13.2497 16.5013 12.7745 16.6981C11.8948 17.0625 10.9521 17.25 10 17.25C9.04792 17.25 8.10516 17.0625 7.22555 16.6981C6.75032 16.5013 6.29855 16.2549 5.87744 15.9638ZM15.6108 14.5915C15.3354 14.2121 15.0026 13.874 14.6217 13.5904C13.8159 12.9904 12.838 12.6664 11.8333 12.6667C11.8332 12.6667 11.8334 12.6667 11.8333 12.6667H8.16664M7.34835 5.51502C8.05161 4.81176 9.00544 4.41667 10 4.41667C10.9946 4.41667 11.9484 4.81176 12.6517 5.51502C13.3549 6.21828 13.75 7.17211 13.75 8.16667C13.75 9.16123 13.3549 10.1151 12.6517 10.8183C11.9484 11.5216 10.9946 11.9167 10 11.9167C9.00544 11.9167 8.05161 11.5216 7.34835 10.8183C6.64509 10.1151 6.25 9.16123 6.25 8.16667C6.25 7.17211 6.64509 6.21828 7.34835 5.51502ZM10 6.41667C9.53587 6.41667 9.09075 6.60104 8.76256 6.92923C8.43437 7.25742 8.25 7.70254 8.25 8.16667C8.25 8.6308 8.43437 9.07592 8.76256 9.4041C9.09075 9.73229 9.53587 9.91667 10 9.91667C10.4641 9.91667 10.9092 9.73229 11.2374 9.4041C11.5656 9.07592 11.75 8.6308 11.75 8.16667C11.75 7.70254 11.5656 7.25742 11.2374 6.92923C10.9092 6.60104 10.4641 6.41667 10 6.41667Z" fill="black"/>
</svg>
